<?xml version="1.0" encoding="UTF-8"?>
<svg width="12px" height="12px" viewBox="0 0 12 12" version="1.1" xmlns="http://www.w3.org/2000/svg" xmlns:xlink="http://www.w3.org/1999/xlink">
    <!-- Generator: Sketch 63.1 (92452) - https://sketch.com -->
    <title>female</title>
    <desc>Created with Sketch.</desc>
    <g id="任务" stroke="none" stroke-width="1" fill="none" fill-rule="evenodd">
        <g id="企业商家-查看排班-待结算-半点打卡-结算审核" transform="translate(-140.000000, -700.000000)">
            <g id="skill" transform="translate(40.000000, 482.000000)">
                <g id="item" transform="translate(40.000000, 200.000000)">
                    <g id="female" transform="translate(52.000000, 12.000000)">
                        <g transform="translate(8.000000, 6.000000)">
                            <rect id="ic-cell" x="0" y="0" width="12" height="12"></rect>
                            <path d="M9.93367872,9.29479578 C9.22620257,8.98213398 7.85125182,8.62880741 7.85125182,8.62880741 C7.85125182,8.62880741 7.86485939,8.20692492 7.85125182,7.78140957 C10.1555055,7.81762115 10.3004965,7.54574132 10.4456048,7.47320097 C9.77508019,6.40384607 9.68428488,4.28330066 9.66610235,4.06626556 C9.48462903,2.4713154 9.04930421,1.80063944 8.9036094,1.56508839 C6.72698529,-1.17210858 4.6768177,0.513311928 4.6768177,0.513311928 C3.25729044,0.458935964 2.88519388,1.7775531 2.830529,1.91337582 C2.5855928,2.62026335 2.42241931,3.93888049 2.3814793,4.10200838 C2.0548977,6.6576787 1.36091181,7.45972417 1.30648154,7.5684761 C2.16375824,7.8811379 4.11010948,7.77238597 4.11010948,7.77238597 C4.11010948,7.77238597 4.12371704,8.31614561 4.12371704,8.6424014 C3.07569981,8.79181811 1.56525992,9.52589363 1.41557669,9.62105156 C0.985061439,9.90054871 0.75678278,10.3311032 0.637951186,10.7493528 C0.459997062,11.3765514 0.930161946,12 1.58226938,12 L10.4163954,12 C11.0931372,12 11.5691675,11.3313163 11.3431176,10.6941565 C10.9821652,9.67671661 10.0249433,9.33534337 9.93379603,9.29491297 L9.93367872,9.29479578 Z" id="Path" fill="#EE4F46" fill-rule="nonzero" opacity="0.800000012"></path>
                        </g>
                    </g>
                </g>
            </g>
        </g>
    </g>
</svg>