<?xml version="1.0" encoding="UTF-8"?>
<svg width="12px" height="12px" viewBox="0 0 12 12" version="1.1" xmlns="http://www.w3.org/2000/svg" xmlns:xlink="http://www.w3.org/1999/xlink">
    <!-- Generator: Sketch 63.1 (92452) - https://sketch.com -->
    <title>male</title>
    <desc>Created with Sketch.</desc>
    <g id="任务" stroke="none" stroke-width="1" fill="none" fill-rule="evenodd">
        <g id="企业商家-查看排班-待结算-半点打卡-结算审核" transform="translate(-140.000000, -580.000000)">
            <g id="skill" transform="translate(40.000000, 482.000000)">
                <g id="item" transform="translate(40.000000, 80.000000)">
                    <g id="male" transform="translate(52.000000, 12.000000)">
                        <g transform="translate(8.000000, 6.000000)">
                            <rect id="ic-cell" x="0" y="0" width="12" height="12"></rect>
                            <path d="M11.3431573,10.6937315 C10.9817927,9.67631637 10.0247996,9.33517801 9.93342006,9.29489282 C9.22564394,8.98203981 7.3623319,8.6289016 7.3623319,8.6289016 C7.33909589,8.42147322 7.33547904,8.21220399 7.35153251,8.0040527 C8.43894912,7.43148882 8.69231968,6.14407722 8.69231967,6.14407722 C10.4576064,4.32952972 9.05783785,3.93267782 9.05783785,3.93267782 C9.09688185,2.46355433 8.60094012,1.61070844 8.60094013,1.61070844 C9.17663128,1.05528719 9.13260295,0.738148518 9.13260294,0.738148518 C8.51703708,0.741577051 7.56752051,0.222155324 7.56752053,0.222155324 C6.00409955,-0.253552683 5.04544503,0.182727271 5.04544503,0.182727271 C2.64299366,1.03557316 2.92128592,3.99181989 2.92128592,3.99181989 C1.55059271,4.35952932 3.22865349,6.14407722 3.22865349,6.14407722 C3.36738425,7.47348827 4.66829671,8.01948106 4.66829672,8.01948106 C4.70817144,8.26633495 4.70734071,8.47204652 4.67992684,8.6426157 C3.63155422,8.79261373 1.67520119,9.52546121 1.52567102,9.62060282 C1.09535644,9.90088484 0.756421386,10.3311649 0.638458701,10.7494451 C0.4590225,11.3768654 0.930042528,12 1.58216019,12 L10.4160702,12 C11.0931096,12 11.569114,11.3314374 11.3431573,10.6937315 Z" id="Path" fill="#409EFF" fill-rule="nonzero" opacity="0.800000012"></path>
                        </g>
                    </g>
                </g>
            </g>
        </g>
    </g>
</svg>