<?xml version="1.0" encoding="UTF-8"?>
<svg width="16px" height="16px" viewBox="0 0 16 16" version="1.1" xmlns="http://www.w3.org/2000/svg" xmlns:xlink="http://www.w3.org/1999/xlink">
    <!-- Generator: Sketch 63.1 (92452) - https://sketch.com -->
    <title>minus</title>
    <desc>Created with Sketch.</desc>
    <g id="排班" stroke="none" stroke-width="1" fill="none" fill-rule="evenodd">
        <g id="排班详情-修改考勤" transform="translate(-794.000000, -444.000000)" fill-rule="nonzero">
            <g id="Group-2" transform="translate(400.000000, 48.000000)">
                <g id="Group" transform="translate(20.000000, 388.000000)">
                    <g id="minus-circle" transform="translate(374.000000, 8.000000)">
                        <rect id="Rectangle" fill="#000000" opacity="0" x="0" y="0" width="16" height="16"></rect>
                        <path d="M10.875,7.5 L5.125,7.5 C5.05625,7.5 5,7.55625 5,7.625 L5,8.375 C5,8.44375 5.05625,8.5 5.125,8.5 L10.875,8.5 C10.94375,8.5 11,8.44375 11,8.375 L11,7.625 C11,7.55625 10.94375,7.5 10.875,7.5 Z" id="Path" fill="#F56C6C"></path>
                        <path d="M8,1 C4.134375,1 1,4.134375 1,8 C1,11.865625 4.134375,15 8,15 C11.865625,15 15,11.865625 15,8 C15,4.134375 11.865625,1 8,1 Z M8,13.8125 C4.790625,13.8125 2.1875,11.209375 2.1875,8 C2.1875,4.790625 4.790625,2.1875 8,2.1875 C11.209375,2.1875 13.8125,4.790625 13.8125,8 C13.8125,11.209375 11.209375,13.8125 8,13.8125 Z" id="Shape" fill="#F56C6C"></path>
                    </g>
                </g>
            </g>
        </g>
    </g>
</svg>