<?xml version="1.0" encoding="UTF-8"?>
<svg width="14px" height="14px" viewBox="0 0 14 14" version="1.1" xmlns="http://www.w3.org/2000/svg" xmlns:xlink="http://www.w3.org/1999/xlink">
    <!-- Generator: Sketch 63.1 (92452) - https://sketch.com -->
    <title>card</title>
    <desc>Created with Sketch.</desc>
    <g id="收入发放订单" stroke="none" stroke-width="1" fill="none" fill-rule="evenodd">
        <g id="待发放订单详情-按人汇总" transform="translate(-246.000000, -627.000000)">
            <g id="Group-Copy-2" transform="translate(80.000000, 610.000000)">
                <g id="card" transform="translate(166.000000, 17.000000)">
                    <rect id="Rectangle" x="0" y="0" width="14" height="14"></rect>
                    <path d="M12.25,12 L1.75,12 C0.783501688,12 0,11.2538079 0,10.3333333 L0,3.66666667 C0,2.74619208 0.783501688,2 1.75,2 L12.25,2 C13.2164983,2 14,2.74619208 14,3.66666667 L14,10.3333333 C14,11.2538079 13.2164983,12 12.25,12 Z M1.16666666,6.16666667 L1.16666666,10.3333333 C1.16666666,10.6401582 1.42783389,10.8888889 1.75,10.8888889 L12.25,10.8888889 C12.5721661,10.8888889 12.8333333,10.6401582 12.8333333,10.3333333 L12.8333333,6.16666667 L1.16666666,6.16666667 Z M1.16666666,5.05555556 L12.8333333,5.05555556 L12.8333333,3.66666667 C12.8333333,3.3598418 12.5721661,3.11111111 12.25,3.11111111 L1.75,3.11111111 C1.42783389,3.11111111 1.16666666,3.3598418 1.16666666,3.66666667 L1.16666666,5.05555556 Z M11.0833333,8.38888889 L7.58333334,8.38888889 C7.26116723,8.38888889 7,8.1401582 7,7.83333333 C7,7.52650847 7.26116723,7.27777777 7.58333334,7.27777777 L11.0833333,7.27777777 C11.4054994,7.27777777 11.6666667,7.52650847 11.6666667,7.83333333 C11.6666667,8.1401582 11.4054994,8.38888889 11.0833333,8.38888889 Z" fill="#409EFF" fill-rule="nonzero"></path>
                </g>
            </g>
        </g>
    </g>
</svg>