<?xml version="1.0" encoding="UTF-8"?>
<svg width="70px" height="20px" viewBox="0 0 70 20" version="1.1" xmlns="http://www.w3.org/2000/svg" xmlns:xlink="http://www.w3.org/1999/xlink">
    <!-- Generator: Sketch 63.1 (92452) - https://sketch.com -->
    <title>company_tag</title>
    <desc>Created with Sketch.</desc>
    <defs>
        <linearGradient x1="50%" y1="0%" x2="50%" y2="100%" id="linearGradient-1">
            <stop stop-color="#4183FF" stop-opacity="0.6" offset="0%"></stop>
            <stop stop-color="#4183FF" offset="100%"></stop>
        </linearGradient>
        <linearGradient x1="50%" y1="0%" x2="50%" y2="100%" id="linearGradient-2">
            <stop stop-color="#4183FF" stop-opacity="0.6" offset="0%"></stop>
            <stop stop-color="#4183FF" offset="100%"></stop>
        </linearGradient>
    </defs>
    <g id="登录实名认证" stroke="none" stroke-width="1" fill="none" fill-rule="evenodd">
        <g id="选择角色&amp;hover" transform="translate(-460.000000, -258.000000)">
            <g id="Group" transform="translate(380.000000, 108.000000)">
                <g id="company_tag-+-company_tag-+-company_tag-+-person_tag-Mask" transform="translate(60.000000, 104.000000)">
                    <g id="company_tag">
                        <g transform="translate(20.000000, 46.000000)">
                            <rect id="tag" stroke="#CDDDFF" fill="#E6EEFF" x="0.5" y="0.5" width="69" height="19" rx="9.5"></rect>
                            <g id="company" transform="translate(8.000000, 5.000000)">
                                <rect id="ic-cell" opacity="0.200000003" x="0" y="0" width="10" height="10"></rect>
                                <path d="M2,10 C0.8954305,10 1.3527075e-16,9.1045695 0,8 L0,3.17590512 C3.31515292e-16,2.25666933 0.626597224,1.45580069 1.51883372,1.23464805 L5.25941686,0.307494967 C5.7954802,0.174624567 6.33775813,0.501477023 6.47062853,1.03754036 C6.49013709,1.11624728 6.5,1.19703489 6.5,1.2781235 L6.5,3 L8.51747217,3.54039433 C9.391921,3.7746217 10,4.56701522 10,5.47229043 L10,8 C10,9.1045695 9.1045695,10 8,10 L2,10 Z M4.5,6 L2.5,6 C2.22385763,6 2,6.22385763 2,6.5 C2,6.74545989 2.17687516,6.94960837 2.41012437,6.99194433 L2.5,7 L4.5,7 C4.77614237,7 5,6.77614237 5,6.5 C5,6.22385763 4.77614237,6 4.5,6 Z M8,6 L7,6 C6.72385763,6 6.5,6.22385763 6.5,6.5 C6.5,6.74545989 6.67687516,6.94960837 6.91012437,6.99194433 L7,7 L8,7 C8.27614237,7 8.5,6.77614237 8.5,6.5 C8.5,6.22385763 8.27614237,6 8,6 Z M4.5,4 L2.5,4 C2.22385763,4 2,4.22385763 2,4.5 C2,4.74545989 2.17687516,4.94960837 2.41012437,4.99194433 L2.5,5 L4.5,5 C4.77614237,5 5,4.77614237 5,4.5 C5,4.22385763 4.77614237,4 4.5,4 Z" id="Combined-Shape" fill="url(#linearGradient-1)"></path>
                            </g>
                            <path d="M22.79,9.47 C24.53,8.54 25.94,7.44 27,6.16 C28.15,7.52 29.54,8.62 31.17,9.46 L31.69,8.54 C30.05,7.76 28.61,6.68 27.35,5.31 L26.65,5.31 C25.49,6.61 24.03,7.69 22.28,8.55 L22.79,9.47 Z M31.13,14.17 L31.13,13.25 L27.76,13.25 L27.76,11.05 L30.41,11.05 L30.41,10.14 L27.76,10.14 L27.76,8 L26.81,8 L26.81,13.25 L25.13,13.25 L25.13,9.44 L24.19,9.44 L24.19,13.25 L22.75,13.25 L22.75,14.17 L31.13,14.17 Z M41.46,14.17 L41.46,13.24 L38.54,13.24 L38.54,5.38 L37.59,5.38 L37.59,13.24 L36.39,13.24 L36.39,5.38 L35.44,5.38 L35.44,13.24 L32.54,13.24 L32.54,14.17 L41.46,14.17 Z M34.04,12.03 L34.91,11.81 C34.51,10.09 34.06,8.56 33.55,7.22 L32.74,7.48 C33.26,8.94 33.7,10.46 34.04,12.03 Z M39.78,11.99 C40.38,10.7 40.87,9.2 41.25,7.48 L40.41,7.24 C39.99,9.04 39.49,10.53 38.93,11.69 L39.78,11.99 Z M50.04,14.48 C50.69,14.48 51.02,14.09 51.02,13.33 L51.02,7.97 L48.87,7.97 C49.04,7.66 49.2,7.32 49.36,6.94 L51.46,6.94 L51.46,6.03 L47.52,6.03 C47.42,5.73 47.33,5.45 47.23,5.2 L46.18,5.36 C46.28,5.56 46.38,5.79 46.47,6.03 L42.54,6.03 L42.54,6.94 L44.57,6.94 C44.75,7.26 44.9,7.61 45.04,7.97 L42.96,7.97 L42.96,14.46 L43.87,14.46 L43.87,10.42 L44.46,11.18 C44.66,11.06 44.85,10.93 45.04,10.8 L45.04,13.37 L48.95,13.37 L48.95,10.73 L45.13,10.73 C45.66,10.34 46.13,9.9 46.54,9.42 L45.87,8.83 C45.33,9.42 44.67,9.94 43.87,10.38 L43.87,8.81 L50.11,8.81 L50.11,13.13 C50.11,13.47 49.98,13.65 49.74,13.65 L48.78,13.62 L49.02,14.48 L50.04,14.48 Z M47.83,7.97 L46.01,7.97 C45.89,7.59 45.75,7.25 45.61,6.94 L48.32,6.94 C48.17,7.29 48.01,7.63 47.83,7.97 Z M49.38,11.16 L50.09,10.46 C49.54,9.92 48.86,9.37 48.06,8.82 L47.42,9.43 C48.26,10.05 48.92,10.62 49.38,11.16 Z M48.03,12.53 L45.96,12.53 L45.96,11.58 L48.03,11.58 L48.03,12.53 Z M53.66,7.96 L53.66,6.98 L60.34,6.98 L60.34,7.96 L61.29,7.96 L61.29,6.1 L57.54,6.1 C57.44,5.78 57.34,5.49 57.23,5.23 L56.26,5.4 C56.37,5.61 56.48,5.84 56.58,6.1 L52.71,6.1 L52.71,7.96 L53.66,7.96 Z M56.24,14.52 C57.15,14.52 57.73,14.34 57.99,13.98 C58.21,13.68 58.33,13.12 58.33,12.32 C58.32,11.78 58.24,11.28 58.09,10.82 C58.23,10.78 58.38,10.75 58.53,10.71 C59.01,12.05 59.78,13.17 60.84,14.06 L61.52,13.27 C60.5,12.55 59.75,11.61 59.29,10.44 C59.88,10.2 60.43,9.92 60.95,9.59 L60.31,8.95 C59.51,9.46 58.67,9.84 57.79,10.1 C57.59,9.74 57.35,9.4 57.06,9.08 C57.28,8.94 57.51,8.79 57.75,8.63 L59.97,8.63 L59.97,7.75 L54.03,7.75 L54.03,8.63 L56.27,8.63 C56.05,8.74 55.82,8.84 55.58,8.94 C54.78,9.27 53.92,9.53 53,9.72 L53.48,10.51 C54.66,10.16 55.58,9.83 56.23,9.52 C56.26,9.5 56.29,9.49 56.33,9.47 C56.43,9.59 56.52,9.71 56.62,9.84 C55.71,10.49 54.44,11.02 52.81,11.44 L53.28,12.26 C54.83,11.81 56.08,11.24 57.02,10.54 C57.1,10.72 57.18,10.92 57.24,11.12 C56.15,11.98 54.63,12.69 52.68,13.24 L53.16,14.05 C54.9,13.51 56.32,12.84 57.4,12.03 C57.4,12.12 57.41,12.22 57.41,12.32 C57.41,12.88 57.32,13.25 57.16,13.45 C57.02,13.6 56.67,13.68 56.11,13.68 L55.6,13.68 L55.92,14.52 L56.24,14.52 Z" id="企业商家" fill="url(#linearGradient-2)"></path>
                        </g>
                    </g>
                </g>
            </g>
        </g>
    </g>
</svg>