<?xml version="1.0" encoding="UTF-8"?>
<svg width="16px" height="16px" viewBox="0 0 16 16" version="1.1" xmlns="http://www.w3.org/2000/svg" xmlns:xlink="http://www.w3.org/1999/xlink">
    <!-- Generator: Sketch 63.1 (92452) - https://sketch.com -->
    <title>fire</title>
    <desc>Created with Sketch.</desc>
    <g id="帮助中心" stroke="none" stroke-width="1" fill="none" fill-rule="evenodd">
        <g transform="translate(-280.000000, -624.000000)" id="Group-Copy">
            <g transform="translate(240.000000, 522.000000)">
                <g id="item" transform="translate(40.000000, 80.000000)">
                    <g id="fire" transform="translate(0.000000, 22.000000)">
                        <rect id="ic-cell" x="0" y="0" width="16" height="16"></rect>
                        <path d="M5.01584658,16 C3.96945588,13.7700348 4.52018783,12.4878049 5.34628576,11.3170732 C6.22745688,9.97909408 6.44774966,8.69686411 6.44774966,8.69686411 C6.44774966,8.69686411 7.16370119,9.58885017 6.88833522,11.0383275 C8.09994551,9.6445993 8.32023829,7.41463415 8.15501871,6.57839721 C10.9086785,8.52961672 12.1202888,12.8222997 10.5231661,15.9442509 C19.0044381,11.0383275 12.6159475,3.73519164 11.5144836,2.95470383 C11.899996,3.79094077 11.9550692,5.18466899 11.1840444,5.85365854 C9.91736095,0.947735192 6.77818883,0 6.77818883,0 C7.16370119,2.5087108 5.45643215,5.24041812 3.80423629,7.30313589 C3.7491631,6.29965157 3.6940899,5.63066202 3.14335795,4.6271777 C3.03321156,6.46689895 1.65638168,7.91637631 1.27086932,9.75609756 C0.775210561,12.2648084 1.65638168,14.0487805 5.01584658,16 L5.01584658,16 Z" id="Path" fill="#EE4F46" fill-rule="nonzero"></path>
                    </g>
                </g>
            </g>
        </g>
    </g>
</svg>