<?xml version="1.0" encoding="UTF-8"?>
<svg width="14px" height="14px" viewBox="0 0 14 14" version="1.1" xmlns="http://www.w3.org/2000/svg" xmlns:xlink="http://www.w3.org/1999/xlink">
    <!-- Generator: Sketch 63.1 (92452) - https://sketch.com -->
    <title>info</title>
    <desc>Created with Sketch.</desc>
    <g id="员工收入明细" stroke="none" stroke-width="1" fill="none" fill-rule="evenodd">
        <g id="待发收入明细-收入明细" transform="translate(-1060.000000, -293.000000)" fill="#409EFF" fill-rule="nonzero">
            <g id="Group" transform="translate(320.000000, 276.000000)">
                <g id="info" transform="translate(740.000000, 17.000000)">
                    <path d="M7,0 C3.134375,0 0,3.134375 0,7 C0,10.865625 3.134375,14 7,14 C10.865625,14 14,10.865625 14,7 C14,3.134375 10.865625,0 7,0 Z M7,12.8125 C3.790625,12.8125 1.1875,10.209375 1.1875,7 C1.1875,3.790625 3.790625,1.1875 7,1.1875 C10.209375,1.1875 12.8125,3.790625 12.8125,7 C12.8125,10.209375 10.209375,12.8125 7,12.8125 Z" id="Shape"></path>
                    <path d="M6.25,4.25 C6.25,4.66421356 6.58578644,5 7,5 C7.41421356,5 7.75,4.66421356 7.75,4.25 C7.75,3.83578644 7.41421356,3.5 7,3.5 C6.58578644,3.5 6.25,3.83578644 6.25,4.25 Z" id="Path"></path>
                    <path d="M7.375,6 L6.625,6 C6.55625,6 6.5,6.05625 6.5,6.125 L6.5,10.375 C6.5,10.44375 6.55625,10.5 6.625,10.5 L7.375,10.5 C7.44375,10.5 7.5,10.44375 7.5,10.375 L7.5,6.125 C7.5,6.05625 7.44375,6 7.375,6 Z" id="Path"></path>
                </g>
            </g>
        </g>
    </g>
</svg>