<?xml version="1.0" encoding="UTF-8"?>
<svg width="48px" height="36px" viewBox="0 0 48 36" version="1.1" xmlns="http://www.w3.org/2000/svg" xmlns:xlink="http://www.w3.org/1999/xlink">
    <!-- Generator: Sketch 63.1 (92452) - https://sketch.com -->
    <title>offline_active</title>
    <desc>Created with Sketch.</desc>
    <g id="收入发放订单" stroke="none" stroke-width="1" fill="none" fill-rule="evenodd">
        <g id="待发放订单详情-去发放" transform="translate(-440.000000, -519.000000)">
            <g id="Group-2" transform="translate(400.000000, 421.000000)">
                <g id="Group" transform="translate(20.000000, 76.000000)">
                    <g id="Group-3" transform="translate(20.000000, 22.000000)">
                        <rect id="ic-cell" x="0" y="0" width="48" height="36"></rect>
                        <path d="M39.5577839,3 L8.44221609,3 C6.00551517,3 4.02005515,4.97979798 4,7.43434343 L44,7.43434343 C43.9799448,4.97979798 41.9944848,3 39.5577839,3 Z M4,9.67676768 L4,28.5252525 C4,31 5.98546002,33 8.44221609,33 L39.5477563,33 C42.0045124,33 43.9899724,31 43.9899724,28.5252525 L43.9899724,9.67676768 L4,9.67676768 Z M31.6159438,23.4444444 L25.9904738,27.030303 C25.7397844,27.2727273 25.228378,27.1515152 25.228378,26.7878788 L25.228378,25.1818182 C25.228378,24.9393939 24.9776886,24.6868687 24.7169717,24.6868687 L16.5344698,24.6868687 C16.2837804,24.5656566 16.1534219,24.4444444 16.1534219,24.1919192 L16.1534219,23.0808081 C16.1534219,22.8383838 16.4041113,22.5858586 16.6648283,22.5858586 L31.3552269,22.5858586 C31.6159438,22.7070707 31.8666332,23.0707071 31.6159438,23.4444444 L31.6159438,23.4444444 Z M31.8666332,19.2020202 C31.8666332,19.4444444 31.6159438,19.6969697 31.3552269,19.6969697 L16.5344698,19.6969697 C16.1534219,19.5757576 16.0230634,19.0808081 16.2837804,18.8282828 L21.9092504,15.2424242 C22.1599398,15 22.6713462,15.1212121 22.6713462,15.4848485 L22.6713462,17.2121212 C22.6713462,17.4545455 22.9220356,17.7070707 23.1827526,17.7070707 L31.3652544,17.7070707 C31.6159438,17.7070707 31.8766608,17.9494949 31.8766608,18.2020202 L31.8766608,19.2020202 L31.8666332,19.2020202 Z" id="Shape" fill="#409EFF" fill-rule="nonzero"></path>
                    </g>
                </g>
            </g>
        </g>
    </g>
</svg>