<?xml version="1.0" encoding="UTF-8"?>
<svg width="70px" height="20px" viewBox="0 0 70 20" version="1.1" xmlns="http://www.w3.org/2000/svg" xmlns:xlink="http://www.w3.org/1999/xlink">
    <!-- Generator: Sketch 63.1 (92452) - https://sketch.com -->
    <title>person_tag</title>
    <desc>Created with Sketch.</desc>
    <defs>
        <linearGradient x1="50%" y1="100%" x2="50%" y2="-2.48949813e-15%" id="linearGradient-1">
            <stop stop-color="#FF882A" offset="0%"></stop>
            <stop stop-color="#FF882A" stop-opacity="0.6" offset="100%"></stop>
        </linearGradient>
        <linearGradient x1="50%" y1="100%" x2="50%" y2="-2.48949813e-15%" id="linearGradient-2">
            <stop stop-color="#FF882A" offset="0%"></stop>
            <stop stop-color="#FF882A" stop-opacity="0.6" offset="100%"></stop>
        </linearGradient>
    </defs>
    <g id="登录实名认证" stroke="none" stroke-width="1" fill="none" fill-rule="evenodd">
        <g id="选择角色&amp;hover" transform="translate(-460.000000, -470.000000)">
            <g id="Group" transform="translate(380.000000, 108.000000)">
                <g id="company_tag-+-company_tag-+-company_tag-+-person_tag-Mask" transform="translate(60.000000, 104.000000)">
                    <g id="person_tag" transform="translate(0.000000, 212.000000)">
                        <g transform="translate(20.000000, 46.000000)">
                            <rect id="tag" stroke="#FFE1CD" fill="#FFF0E6" x="0.5" y="0.5" width="69" height="19" rx="9.5"></rect>
                            <g id="person" transform="translate(8.000000, 5.000000)">
                                <rect id="ic-cell" opacity="0.200000003" x="0" y="0" width="10" height="10"></rect>
                                <path d="M7,7 C8.59768088,7 9.90366088,8.24891996 9.99490731,9.82372721 L10,10 L0,10 C-2.02906125e-16,8.34314575 1.34314575,7 3,7 L7,7 Z M8,0 L8,3 C8,4.65685425 6.65685425,6 5,6 C3.34314575,6 2,4.65685425 2,3 C2,1.34314575 3.34314575,3.04359188e-16 5,0 L8,0 Z" id="Combined-Shape" fill="url(#linearGradient-1)"></path>
                            </g>
                            <path d="M22.89,9.73 C24.55,8.9 25.92,7.72 27,6.19 C27.9,7.59 29.27,8.77 31.11,9.72 L31.68,8.85 C29.67,7.83 28.25,6.64 27.42,5.3 L26.58,5.3 C25.58,6.76 24.16,7.95 22.32,8.87 L22.89,9.73 Z M27.48,14.52 L27.48,8.28 L26.52,8.28 L26.52,14.52 L27.48,14.52 Z M32.89,14.5 C34.99,13.14 36.37,11.42 37.03,9.34 C37.79,11.48 39.13,13.2 41.05,14.48 L41.68,13.65 C39.4,12.25 37.96,10.22 37.38,7.56 C37.42,6.94 37.45,6.2 37.45,5.32 L36.49,5.32 C36.49,5.7 36.48,6.22 36.48,6.89 C36.4,9.76 35.01,12.01 32.31,13.65 L32.89,14.5 Z M50.04,14.48 C50.69,14.48 51.02,14.09 51.02,13.33 L51.02,7.97 L48.87,7.97 C49.04,7.66 49.2,7.32 49.36,6.94 L51.46,6.94 L51.46,6.03 L47.52,6.03 C47.42,5.73 47.33,5.45 47.23,5.2 L46.18,5.36 C46.28,5.56 46.38,5.79 46.47,6.03 L42.54,6.03 L42.54,6.94 L44.57,6.94 C44.75,7.26 44.9,7.61 45.04,7.97 L42.96,7.97 L42.96,14.46 L43.87,14.46 L43.87,10.42 L44.46,11.18 C44.66,11.06 44.85,10.93 45.04,10.8 L45.04,13.37 L48.95,13.37 L48.95,10.73 L45.13,10.73 C45.66,10.34 46.13,9.9 46.54,9.42 L45.87,8.83 C45.33,9.42 44.67,9.94 43.87,10.38 L43.87,8.81 L50.11,8.81 L50.11,13.13 C50.11,13.47 49.98,13.65 49.74,13.65 L48.78,13.62 L49.02,14.48 L50.04,14.48 Z M47.83,7.97 L46.01,7.97 C45.89,7.59 45.75,7.25 45.61,6.94 L48.32,6.94 C48.17,7.29 48.01,7.63 47.83,7.97 Z M49.38,11.16 L50.09,10.46 C49.54,9.92 48.86,9.37 48.06,8.82 L47.42,9.43 C48.26,10.05 48.92,10.62 49.38,11.16 Z M48.03,12.53 L45.96,12.53 L45.96,11.58 L48.03,11.58 L48.03,12.53 Z M53.66,7.96 L53.66,6.98 L60.34,6.98 L60.34,7.96 L61.29,7.96 L61.29,6.1 L57.54,6.1 C57.44,5.78 57.34,5.49 57.23,5.23 L56.26,5.4 C56.37,5.61 56.48,5.84 56.58,6.1 L52.71,6.1 L52.71,7.96 L53.66,7.96 Z M56.24,14.52 C57.15,14.52 57.73,14.34 57.99,13.98 C58.21,13.68 58.33,13.12 58.33,12.32 C58.32,11.78 58.24,11.28 58.09,10.82 C58.23,10.78 58.38,10.75 58.53,10.71 C59.01,12.05 59.78,13.17 60.84,14.06 L61.52,13.27 C60.5,12.55 59.75,11.61 59.29,10.44 C59.88,10.2 60.43,9.92 60.95,9.59 L60.31,8.95 C59.51,9.46 58.67,9.84 57.79,10.1 C57.59,9.74 57.35,9.4 57.06,9.08 C57.28,8.94 57.51,8.79 57.75,8.63 L59.97,8.63 L59.97,7.75 L54.03,7.75 L54.03,8.63 L56.27,8.63 C56.05,8.74 55.82,8.84 55.58,8.94 C54.78,9.27 53.92,9.53 53,9.72 L53.48,10.51 C54.66,10.16 55.58,9.83 56.23,9.52 C56.26,9.5 56.29,9.49 56.33,9.47 C56.43,9.59 56.52,9.71 56.62,9.84 C55.71,10.49 54.44,11.02 52.81,11.44 L53.28,12.26 C54.83,11.81 56.08,11.24 57.02,10.54 C57.1,10.72 57.18,10.92 57.24,11.12 C56.15,11.98 54.63,12.69 52.68,13.24 L53.16,14.05 C54.9,13.51 56.32,12.84 57.4,12.03 C57.4,12.12 57.41,12.22 57.41,12.32 C57.41,12.88 57.32,13.25 57.16,13.45 C57.02,13.6 56.67,13.68 56.11,13.68 L55.6,13.68 L55.92,14.52 L56.24,14.52 Z" id="个人商家" fill="url(#linearGradient-2)"></path>
                        </g>
                    </g>
                </g>
            </g>
        </g>
    </g>
</svg>