<?xml version="1.0" encoding="UTF-8"?>
<svg width="40px" height="40px" viewBox="0 0 40 40" version="1.1" xmlns="http://www.w3.org/2000/svg" xmlns:xlink="http://www.w3.org/1999/xlink">
    <!-- Generator: Sketch 63.1 (92452) - https://sketch.com -->
    <title>role_company</title>
    <desc>Created with Sketch.</desc>
    <defs>
        <linearGradient x1="50%" y1="0%" x2="50%" y2="100%" id="linearGradient-1">
            <stop stop-color="#4183FF" stop-opacity="0.6" offset="0%"></stop>
            <stop stop-color="#4183FF" offset="100%"></stop>
        </linearGradient>
    </defs>
    <g id="登录实名认证" stroke="none" stroke-width="1" fill="none" fill-rule="evenodd">
        <g id="选择角色认证" transform="translate(-370.000000, -295.000000)">
            <g id="Group-2" transform="translate(320.000000, 187.000000)">
                <g id="company_tag" transform="translate(20.000000, 76.000000)">
                    <g id="role_company" transform="translate(30.000000, 32.000000)">
                        <rect id="ic-cell" opacity="0.200000003" x="0" y="0" width="40" height="40"></rect>
                        <path d="M26,25 L26,27 C26,27.5128358 26.3860402,27.9355072 26.8833789,27.9932723 L27,28 L33,28 C33.5128358,28 33.9355072,27.6139598 33.9932723,27.1166211 L34,27 L34,25 C34,24.4871642 33.6139598,24.0644928 33.1166211,24.0067277 L33,24 L27,24 C26.4871642,24 26.0644928,24.3860402 26.0067277,24.8833789 L26,25 Z M19,24 L9,24 C8.48716416,24 8.06449284,24.3860402 8.00672773,24.8833789 L8,25 L8,27 C8,27.5128358 8.38604019,27.9355072 8.88337887,27.9932723 L9,28 L19,28 C19.5128358,28 19.9355072,27.6139598 19.9932723,27.1166211 L20,27 L20,25 C20,24.4477153 19.5522847,24 19,24 Z M19,16 L9,16 C8.48716416,16 8.06449284,16.3860402 8.00672773,16.8833789 L8,17 L8,19 C8,19.5128358 8.38604019,19.9355072 8.88337887,19.9932723 L9,20 L19,20 C19.5128358,20 19.9355072,19.6139598 19.9932723,19.1166211 L20,19 L20,17 C20,16.4477153 19.5522847,16 19,16 Z M2,40 C0.8954305,40 4.05948992e-15,39.1045695 0,38 L0,8.00923846 C3.31515292e-16,7.09000266 0.626597224,6.28913402 1.51883372,6.06798139 L24.7594169,0.307494966 C25.2954802,0.174624567 25.8377581,0.501477023 25.9706285,1.03754036 C25.9901371,1.11624728 26,1.19703489 26,1.2781235 L26,12 L38.5174722,15.3528943 C39.391921,15.5871217 40,16.3795152 40,17.2847904 L40,38 C40,39.1045695 39.1045695,40 38,40 L2,40 Z" id="Combined-Shape" fill="url(#linearGradient-1)"></path>
                    </g>
                </g>
            </g>
        </g>
    </g>
</svg>